<?xml version="1.0" encoding="UTF-8"?><svg id="Layer_2" xmlns="http://www.w3.org/2000/svg" viewBox="0 0 502.4 550.25"><defs><style>.cls-1{fill:#fff;}.cls-2{fill:#f26722;fill-rule:evenodd;}</style></defs><g id="Layer_1-2"><g><polygon class="cls-1" points="41.31 201.63 41.31 334.47 458.79 340.93 487.82 297.26 468.13 214.81 221.26 175.96 41.31 201.63"/><g><path class="cls-2" d="M175.33,241.3c-16.48,0-29.83,13.36-29.83,29.83,0,11.25,6.23,21.05,15.43,26.13l40.53-40.53c-5.08-9.2-14.88-15.43-26.13-15.43Z"/><path class="cls-2" d="M412.83,241.3c-16.48,0-29.83,13.36-29.83,29.83s13.36,29.83,29.83,29.83,29.83-13.36,29.83-29.83-13.36-29.83-29.83-29.83Z"/><path class="cls-2" d="M295.49,241.3c-16.48,0-29.83,13.36-29.83,29.83,0,11.25,6.23,21.05,15.43,26.13l40.53-40.53c-5.08-9.2-14.88-15.43-26.13-15.43Z"/><path class="cls-2" d="M450.81,191.12c-50.83-29.37-114.98-35.66-165.82-65.01-50.96-29.42-88.58-81.94-139.57-111.3-.02-.01-.04,.05-.06,.04C79.85-26.52-1.49,24.06,.02,98.75c1.18,58.71,26.47,117.46,26.47,176.19,0,58.84-25.14,117.69-26.46,176.51-1.65,73.55,76.79,123.64,142.08,85.94,.02,0,.19-.11,.2-.11,51.95-29.9,91.37-83.43,143.3-113.37,49.75-28.68,112.95-32.18,161.73-62.47,68.98-42.84,76.49-128.12,3.47-170.31ZM108.75,242.31c-.17,0-.33,0-.5-.01-16.47-.3-27.27,5.99-27.27,16.66v53.09c0,7.59-6.15,13.75-13.75,13.75s-13.75-6.16-13.75-13.75v-53.09c0-24.38,19.77-44.15,44.15-44.15,3.35,.03,6.92,.07,10.7,0,.14,0,.28,0,.42,0,7.59,0,13.75,6.16,13.75,13.75s-6.16,13.75-13.75,13.75Zm107.24,84.12h-41.25c-.22,0-.44,0-.65-.02-29.96-.67-54.04-25.16-54.04-55.28s24.76-55.3,55.3-55.3c25.58,0,47.09,17.37,53.41,40.95,1.97,4.98,.95,10.87-3.08,14.89l-27.07,27.07h17.39c7.64,0,13.84,6.2,13.84,13.84s-6.2,13.84-13.84,13.84Zm120.15,0h-41.25c-.22,0-.44,0-.65-.02-29.96-.67-54.04-25.16-54.04-55.28s24.76-55.3,55.3-55.3c25.58,0,47.09,17.37,53.41,40.95,1.97,4.98,.95,10.87-3.08,14.89l-27.07,27.07h17.39c7.65,0,13.84,6.2,13.84,13.84s-6.2,13.84-13.84,13.84Zm131.99-13.84c0,7.64-6.2,13.84-13.84,13.84-5.6,0-10.43-3.33-12.61-8.12-8.4,5.15-18.28,8.12-28.85,8.12-30.54,0-55.3-24.76-55.3-55.3s24.76-55.3,55.3-55.3,54.05,23.54,55.24,53.02c.04,.75,.05,1.5,.05,2.28v41.46Z"/></g><g><path class="cls-1" d="M53.61,385.14v-43.61h13.42c3.83,0,7.26,.86,10.29,2.59s5.39,4.18,7.08,7.37c1.7,3.19,2.55,6.81,2.55,10.86v2.01c0,4.05-.83,7.66-2.5,10.81-1.67,3.16-4.02,5.6-7.05,7.34s-6.46,2.62-10.27,2.64h-13.51Zm8.99-36.33v29.12h4.34c3.51,0,6.2-1.15,8.06-3.45,1.86-2.3,2.81-5.58,2.85-9.85v-2.31c0-4.43-.92-7.79-2.76-10.08-1.84-2.29-4.52-3.43-8.06-3.43h-4.43Z"/><path class="cls-1" d="M103.03,385.14h-8.99v-43.61h8.99v43.61Z"/><path class="cls-1" d="M145.87,379.63c-1.62,1.94-3.9,3.44-6.86,4.51-2.96,1.07-6.23,1.6-9.83,1.6-3.77,0-7.08-.82-9.93-2.47s-5.04-4.04-6.59-7.17c-1.55-3.14-2.34-6.82-2.38-11.05v-2.97c0-4.35,.73-8.12,2.2-11.31,1.47-3.18,3.58-5.62,6.35-7.31,2.77-1.69,6.01-2.53,9.72-2.53,5.17,0,9.22,1.23,12.13,3.7,2.92,2.47,4.64,6.06,5.18,10.77h-8.75c-.4-2.5-1.28-4.32-2.65-5.48-1.37-1.16-3.25-1.74-5.65-1.74-3.06,0-5.38,1.15-6.98,3.44-1.6,2.3-2.41,5.71-2.43,10.25v2.79c0,4.57,.87,8.03,2.61,10.36,1.74,2.34,4.28,3.5,7.64,3.5s5.78-.72,7.22-2.16v-7.52h-8.18v-6.62h17.16v17.4Z"/><path class="cls-1" d="M162.7,385.14h-8.99v-43.61h8.99v43.61Z"/><path class="cls-1" d="M202.99,348.8h-13.36v36.33h-8.99v-36.33h-13.18v-7.28h35.53v7.28Z"/><path class="cls-1" d="M229.14,376.15h-15.76l-3,8.99h-9.56l16.24-43.61h8.33l16.33,43.61h-9.56l-3.03-8.99Zm-13.33-7.28h10.9l-5.48-16.33-5.42,16.33Z"/><path class="cls-1" d="M254.78,377.92h19.08v7.22h-28.07v-43.61h8.99v36.39Z"/></g></g></g></svg>